<?xml version="1.0" encoding="utf-8" ?>
<svg baseProfile="full" height="568" version="1.1" width="976" xmlns="http://www.w3.org/2000/svg" xmlns:ev="http://www.w3.org/2001/xml-events" xmlns:xlink="http://www.w3.org/1999/xlink"><defs /><line stroke="white" stroke-width="3" x1="398" x2="390" y1="60" y2="257" /><line stroke="white" stroke-width="3" x1="390" x2="311" y1="257" y2="258" /><line stroke="white" stroke-width="3" x1="311" x2="293" y1="258" y2="112" /><line stroke="white" stroke-width="3" x1="293" x2="59" y1="112" y2="190" /><line stroke="white" stroke-width="3" x1="59" x2="165" y1="190" y2="462" /><line stroke="white" stroke-width="3" x1="165" x2="192" y1="462" y2="410" /><line stroke="white" stroke-width="3" x1="192" x2="284" y1="410" y2="410" /><line stroke="white" stroke-width="3" x1="284" x2="308" y1="410" y2="450" /><line stroke="white" stroke-width="3" x1="308" x2="535" y1="450" y2="430" /><line stroke="white" stroke-width="3" x1="535" x2="560" y1="430" y2="489" /><line stroke="white" stroke-width="3" x1="560" x2="671" y1="489" y2="487" /><line stroke="white" stroke-width="3" x1="671" x2="674" y1="487" y2="285" /><line stroke="white" stroke-width="3" x1="674" x2="842" y1="285" y2="288" /><line stroke="white" stroke-width="3" x1="842" x2="850" y1="288" y2="488" /><line stroke="white" stroke-width="3" x1="850" x2="886" y1="488" y2="487" /><line stroke="white" stroke-width="3" x1="886" x2="914" y1="487" y2="224" /><line stroke="white" stroke-width="3" x1="914" x2="556" y1="224" y2="218" /><line stroke="white" stroke-width="3" x1="556" x2="553" y1="218" y2="68" /><line stroke="white" stroke-width="3" x1="553" x2="398" y1="68" y2="60" /><line stroke="white" stroke-width="3" x1="398" x2="398" y1="60" y2="60" /></svg>