<?xml version="1.0" encoding="utf-8" ?>
<svg baseProfile="full" height="1865" version="1.1" width="1012" xmlns="http://www.w3.org/2000/svg" xmlns:ev="http://www.w3.org/2001/xml-events" xmlns:xlink="http://www.w3.org/1999/xlink"><defs /><line stroke="white" stroke-width="3" x1="193" x2="111" y1="60" y2="108" /><line stroke="white" stroke-width="3" x1="111" x2="96" y1="108" y2="190" /><line stroke="white" stroke-width="3" x1="96" x2="141" y1="190" y2="192" /><line stroke="white" stroke-width="3" x1="141" x2="165" y1="192" y2="374" /><line stroke="white" stroke-width="3" x1="165" x2="111" y1="374" y2="386" /><line stroke="white" stroke-width="3" x1="111" x2="91" y1="386" y2="495" /><line stroke="white" stroke-width="3" x1="91" x2="132" y1="495" y2="497" /><line stroke="white" stroke-width="3" x1="132" x2="101" y1="497" y2="590" /><line stroke="white" stroke-width="3" x1="101" x2="149" y1="590" y2="592" /><line stroke="white" stroke-width="3" x1="149" x2="144" y1="592" y2="673" /><line stroke="white" stroke-width="3" x1="144" x2="60" y1="673" y2="723" /><line stroke="white" stroke-width="3" x1="60" x2="134" y1="723" y2="727" /><line stroke="white" stroke-width="3" x1="134" x2="136" y1="727" y2="810" /><line stroke="white" stroke-width="3" x1="136" x2="105" y1="810" y2="885" /><line stroke="white" stroke-width="3" x1="105" x2="148" y1="885" y2="889" /><line stroke="white" stroke-width="3" x1="148" x2="183" y1="889" y2="1310" /><line stroke="white" stroke-width="3" x1="183" x2="147" y1="1310" y2="1315" /><line stroke="white" stroke-width="3" x1="147" x2="153" y1="1315" y2="1421" /><line stroke="white" stroke-width="3" x1="153" x2="340" y1="1421" y2="1438" /><line stroke="white" stroke-width="3" x1="340" x2="359" y1="1438" y2="1789" /><line stroke="white" stroke-width="3" x1="359" x2="504" y1="1789" y2="1790" /><line stroke="white" stroke-width="3" x1="504" x2="535" y1="1790" y2="1760" /><line stroke="white" stroke-width="3" x1="535" x2="530" y1="1760" y2="1439" /><line stroke="white" stroke-width="3" x1="530" x2="942" y1="1439" y2="1458" /><line stroke="white" stroke-width="3" x1="942" x2="945" y1="1458" y2="1252" /><line stroke="white" stroke-width="3" x1="945" x2="805" y1="1252" y2="1246" /><line stroke="white" stroke-width="3" x1="805" x2="801" y1="1246" y2="1153" /><line stroke="white" stroke-width="3" x1="801" x2="654" y1="1153" y2="1134" /><line stroke="white" stroke-width="3" x1="654" x2="653" y1="1134" y2="935" /><line stroke="white" stroke-width="3" x1="653" x2="796" y1="935" y2="943" /><line stroke="white" stroke-width="3" x1="796" x2="807" y1="943" y2="862" /><line stroke="white" stroke-width="3" x1="807" x2="895" y1="862" y2="859" /><line stroke="white" stroke-width="3" x1="895" x2="900" y1="859" y2="685" /><line stroke="white" stroke-width="3" x1="900" x2="818" y1="685" y2="671" /><line stroke="white" stroke-width="3" x1="818" x2="817" y1="671" y2="525" /><line stroke="white" stroke-width="3" x1="817" x2="690" y1="525" y2="485" /><line stroke="white" stroke-width="3" x1="690" x2="693" y1="485" y2="295" /><line stroke="white" stroke-width="3" x1="693" x2="920" y1="295" y2="289" /><line stroke="white" stroke-width="3" x1="920" x2="939" y1="289" y2="93" /><line stroke="white" stroke-width="3" x1="939" x2="907" y1="93" y2="68" /><line stroke="white" stroke-width="3" x1="907" x2="615" y1="68" y2="73" /><line stroke="white" stroke-width="3" x1="615" x2="601" y1="73" y2="118" /><line stroke="white" stroke-width="3" x1="601" x2="522" y1="118" y2="118" /><line stroke="white" stroke-width="3" x1="522" x2="495" y1="118" y2="66" /><line stroke="white" stroke-width="3" x1="495" x2="193" y1="66" y2="60" /><line stroke="white" stroke-width="3" x1="193" x2="193" y1="60" y2="60" /></svg>