<?xml version="1.0" encoding="utf-8" ?>
<svg baseProfile="full" height="452" version="1.1" width="1292" xmlns="http://www.w3.org/2000/svg" xmlns:ev="http://www.w3.org/2001/xml-events" xmlns:xlink="http://www.w3.org/1999/xlink"><defs /><line stroke="white" stroke-width="3" x1="77" x2="66" y1="62" y2="325" /><line stroke="white" stroke-width="3" x1="66" x2="675" y1="325" y2="338" /><line stroke="white" stroke-width="3" x1="675" x2="691" y1="338" y2="387" /><line stroke="white" stroke-width="3" x1="691" x2="802" y1="387" y2="356" /><line stroke="white" stroke-width="3" x1="802" x2="810" y1="356" y2="391" /><line stroke="white" stroke-width="3" x1="810" x2="1231" y1="391" y2="269" /><line stroke="white" stroke-width="3" x1="1231" x2="1216" y1="269" y2="211" /><line stroke="white" stroke-width="3" x1="1216" x2="1144" y1="211" y2="206" /><line stroke="white" stroke-width="3" x1="1144" x2="1129" y1="206" y2="145" /><line stroke="white" stroke-width="3" x1="1129" x2="579" y1="145" y2="214" /><line stroke="white" stroke-width="3" x1="579" x2="576" y1="214" y2="66" /><line stroke="white" stroke-width="3" x1="576" x2="470" y1="66" y2="68" /><line stroke="white" stroke-width="3" x1="470" x2="463" y1="68" y2="225" /><line stroke="white" stroke-width="3" x1="463" x2="395" y1="225" y2="227" /><line stroke="white" stroke-width="3" x1="395" x2="389" y1="227" y2="265" /><line stroke="white" stroke-width="3" x1="389" x2="303" y1="265" y2="265" /><line stroke="white" stroke-width="3" x1="303" x2="296" y1="265" y2="65" /><line stroke="white" stroke-width="3" x1="296" x2="77" y1="65" y2="62" /><line stroke="white" stroke-width="3" x1="77" x2="77" y1="62" y2="62" /></svg>